<mxfile host="app.diagrams.net" modified="2023-04-25T11:16:18.007Z" agent="Mozilla/5.0 (Macintosh; Intel Mac OS X 10.15; rv:107.0) Gecko/20100101 Firefox/107.0" etag="6eCl7Dn_VgWbs2bW1tNH" version="21.2.1" type="github">
  <diagram name="Page-1" id="wI_Hvtuvz4mxTSzpntFi">
    <mxGraphModel dx="1575" dy="1159" grid="1" gridSize="10" guides="1" tooltips="1" connect="1" arrows="1" fold="1" page="1" pageScale="1" pageWidth="827" pageHeight="1169" math="0" shadow="0">
      <root>
        <mxCell id="0" />
        <mxCell id="1" parent="0" />
        <mxCell id="roOlMWXBv_yk_0nGVt14-5" value="&lt;div&gt;START&lt;/div&gt;" style="text;html=1;align=center;verticalAlign=middle;resizable=0;points=[];autosize=1;strokeColor=none;fillColor=none;" vertex="1" parent="1">
          <mxGeometry x="300" y="58" width="60" height="30" as="geometry" />
        </mxCell>
        <mxCell id="roOlMWXBv_yk_0nGVt14-6" value="" style="shape=flexArrow;endArrow=classic;html=1;rounded=0;" edge="1" parent="1">
          <mxGeometry width="50" height="50" relative="1" as="geometry">
            <mxPoint x="330" y="90" as="sourcePoint" />
            <mxPoint x="330" y="160" as="targetPoint" />
          </mxGeometry>
        </mxCell>
        <mxCell id="roOlMWXBv_yk_0nGVt14-7" value="Parsing config file" style="rounded=0;whiteSpace=wrap;html=1;" vertex="1" parent="1">
          <mxGeometry x="270" y="170" width="120" height="60" as="geometry" />
        </mxCell>
        <mxCell id="roOlMWXBv_yk_0nGVt14-8" value="" style="endArrow=classic;html=1;rounded=0;" edge="1" parent="1">
          <mxGeometry width="50" height="50" relative="1" as="geometry">
            <mxPoint x="400" y="200" as="sourcePoint" />
            <mxPoint x="520" y="200" as="targetPoint" />
          </mxGeometry>
        </mxCell>
        <mxCell id="roOlMWXBv_yk_0nGVt14-9" value="-ports" style="shape=cylinder3;whiteSpace=wrap;html=1;boundedLbl=1;backgroundOutline=1;size=15;" vertex="1" parent="1">
          <mxGeometry x="530" y="100" width="120" height="140" as="geometry" />
        </mxCell>
        <mxCell id="roOlMWXBv_yk_0nGVt14-10" value="data in webserv.hpp" style="text;html=1;strokeColor=none;fillColor=none;align=center;verticalAlign=middle;whiteSpace=wrap;rounded=0;" vertex="1" parent="1">
          <mxGeometry x="520" y="70" width="140" height="30" as="geometry" />
        </mxCell>
      </root>
    </mxGraphModel>
  </diagram>
</mxfile>
